<svg xmlns="http://www.w3.org/2000/svg" width="46.511" height="46.52" viewBox="0 0 46.511 46.52"><path d="M46.842,13.677a17,17,0,0,0-1.081-5.644,11.917,11.917,0,0,0-6.807-6.807A17.042,17.042,0,0,0,33.311.146C30.821.027,30.03,0,23.714,0s-7.107.027-9.588.136A17,17,0,0,0,8.483,1.218a11.351,11.351,0,0,0-4.126,2.69A11.454,11.454,0,0,0,1.676,8.025,17.044,17.044,0,0,0,.595,13.668c-.118,2.49-.146,3.281-.146,9.6s.027,7.107.136,9.588A17,17,0,0,0,1.667,38.5,11.915,11.915,0,0,0,8.474,45.3a17.045,17.045,0,0,0,5.644,1.081c2.481.109,3.272.136,9.588.136s7.107-.027,9.588-.136A16.994,16.994,0,0,0,38.936,45.3,11.9,11.9,0,0,0,45.743,38.5a17.056,17.056,0,0,0,1.081-5.644c.109-2.481.136-3.272.136-9.588S46.951,16.158,46.842,13.677ZM42.653,32.671a12.751,12.751,0,0,1-.8,4.317A7.717,7.717,0,0,1,37.437,41.4a12.8,12.8,0,0,1-4.317.8c-2.454.109-3.19.136-9.4.136s-6.952-.027-9.4-.136a12.744,12.744,0,0,1-4.317-.8,7.158,7.158,0,0,1-2.672-1.736A7.233,7.233,0,0,1,5.6,37a12.8,12.8,0,0,1-.8-4.317c-.109-2.454-.136-3.19-.136-9.4s.027-6.952.136-9.4A12.744,12.744,0,0,1,5.6,9.57,7.071,7.071,0,0,1,7.347,6.9a7.221,7.221,0,0,1,2.672-1.736,12.8,12.8,0,0,1,4.317-.8c2.454-.109,3.19-.136,9.4-.136s6.952.027,9.4.136a12.751,12.751,0,0,1,4.317.8A7.153,7.153,0,0,1,40.117,6.9,7.231,7.231,0,0,1,41.853,9.57a12.8,12.8,0,0,1,.8,4.317c.109,2.454.136,3.19.136,9.4S42.762,30.217,42.653,32.671Zm0,0" transform="translate(-0.449 0)" fill="#00417b"/><path d="M136.9,124.5a11.95,11.95,0,1,0,11.95,11.95A11.953,11.953,0,0,0,136.9,124.5Zm0,19.7a7.752,7.752,0,1,1,7.752-7.752A7.753,7.753,0,0,1,136.9,144.2Zm0,0" transform="translate(-113.635 -113.186)" fill="#00417b"/><path d="M368.029,91.391a2.79,2.79,0,1,1-2.79-2.79A2.79,2.79,0,0,1,368.029,91.391Zm0,0" transform="translate(-329.551 -80.55)" fill="#00417b"/></svg>