<svg xmlns="http://www.w3.org/2000/svg" width="46.511" height="40.496" viewBox="0 0 46.511 40.496"><path d="M.822,38.818l10.717,4,4.148,13.341a1.262,1.262,0,0,0,2,.6l5.974-4.87a1.782,1.782,0,0,1,2.173-.061l10.775,7.823a1.263,1.263,0,0,0,1.979-.764l7.893-37.967a1.263,1.263,0,0,0-1.691-1.435L.809,36.455A1.264,1.264,0,0,0,.822,38.818Zm14.2,1.871,20.945-12.9a.365.365,0,0,1,.44.578L19.118,44.434a3.583,3.583,0,0,0-1.111,2.144l-.589,4.364a.541.541,0,0,1-1.057.077L14.1,43.061A2.109,2.109,0,0,1,15.019,40.689Z" transform="translate(0 -19.401)" fill="#00417b"/></svg>