<svg xmlns="http://www.w3.org/2000/svg" width="139.226" height="118.974" viewBox="0 0 139.226 118.974"><g transform="translate(0 -37.238)"><path d="M81.519,181.254a4.2,4.2,0,0,1-4.2,4.2H4.2a4.2,4.2,0,0,1-4.2-4.2V82.647l81.519-4.2Z" transform="translate(0 -30.002)" fill="#edebed"/><path d="M244.718,93.9v98.607a4.2,4.2,0,0,1-4.2,4.2h-8.4a4.2,4.2,0,0,0,4.2-4.2v-5.6l-22.551-36.838L236.314,93.9Z" transform="translate(-155.635 -41.254)" fill="#dbd9dc"/><path d="M81.519,52.645h-.841L42.86,59.127,8.4,52.645H0V41.44a4.2,4.2,0,0,1,4.2-4.2H77.317a4.2,4.2,0,0,1,4.2,4.2Z" fill="#c3aff0"/><path d="M293.846,41.442V52.647h-8.4V41.442a4.2,4.2,0,0,0-4.2-4.2h8.4A4.2,4.2,0,0,1,293.846,41.442Z" transform="translate(-204.764 -0.001)" fill="#a69ded"/><path d="M103.18,186.9a1.4,1.4,0,0,1-1.4,1.4H32.306a1.4,1.4,0,0,1-1.4-1.4v-93H103.18Z" transform="translate(-22.501 -41.253)" fill="#fff"/><path d="M102.851,147.775H63.212a1.4,1.4,0,0,1-1.4-1.4V126.2a1.4,1.4,0,0,1,1.4-1.4h52.665a1.4,1.4,0,0,1,1.4,1.4v9.8Z" transform="translate(-45.003 -63.755)" fill="#bde4ff"/><g transform="translate(14.707 90.324)"><path d="M80.137,298.472H56.186a2.1,2.1,0,0,1,0-4.2H80.137a2.1,2.1,0,1,1,0,4.2Z" transform="translate(-54.085 -277.462)" fill="#dbd9dc"/><path d="M80.137,267.567H56.186a2.1,2.1,0,0,1,0-4.2H80.137a2.1,2.1,0,1,1,0,4.2Z" transform="translate(-54.085 -254.961)" fill="#dbd9dc"/><path d="M82.939,236.661H56.186a2.1,2.1,0,0,1,0-4.2H82.939a2.1,2.1,0,0,1,0,4.2Z" transform="translate(-54.085 -232.459)" fill="#dbd9dc"/></g><path d="M56.186,395.391a2.1,2.1,0,0,1-2.1-2.1v-4.2a2.1,2.1,0,0,1,4.2,0v4.2A2.1,2.1,0,0,1,56.186,395.391Z" transform="translate(-39.378 -254.643)" fill="#bde4ff"/><path d="M87.092,380.39a2.1,2.1,0,0,1-2.1-2.1v-9.8a2.1,2.1,0,0,1,4.2,0v9.8A2.1,2.1,0,0,1,87.092,380.39Z" transform="translate(-61.88 -239.643)" fill="#fc8d94"/><path d="M148.9,350.388a2.1,2.1,0,0,1-2.1-2.1v-21.01a2.1,2.1,0,0,1,4.2,0v21.01A2.1,2.1,0,0,1,148.9,350.388Z" transform="translate(-106.883 -209.64)" fill="#fc8d94"/><path d="M179.808,380.39a2.1,2.1,0,0,1-2.1-2.1v-9.8a2.1,2.1,0,0,1,4.2,0v9.8A2.1,2.1,0,0,1,179.808,380.39Z" transform="translate(-129.384 -239.643)" fill="#bde4ff"/><path d="M118,365.389a2.1,2.1,0,0,1-2.1-2.1V347.881a2.1,2.1,0,0,1,4.2,0v15.407A2.1,2.1,0,0,1,118,365.389Z" transform="translate(-84.381 -224.641)" fill="#bde4ff"/><path d="M0,0H20.465V8.4H0Z" transform="translate(109.032 120.086) rotate(45)" fill="#edebed"/><path d="M196.609,210.692a35.579,35.579,0,0,1,20.954-60.486c9.81.113,20.958,5.53,28.976,13.548,0,0,16.248,21.782-2.428,45.055,0,0-11.415,11.7-26.542,12.057A35.427,35.427,0,0,1,196.609,210.692Z" transform="translate(-135.559 -82.249)" fill="#ffe07d"/><path d="M341.352,184.869a35.591,35.591,0,0,1-39.777,35.33,35.578,35.578,0,0,0,0-70.658,35.574,35.574,0,0,1,39.777,35.328Z" transform="translate(-219.569 -81.584)" fill="#ffd064"/><path d="M225.054,226.588a27.173,27.173,0,1,1,38.428,0A27.173,27.173,0,0,1,225.054,226.588Z" transform="translate(-158.061 -104.088)" fill="#fff"/><path d="M339.237,257.525h-5.6a1.4,1.4,0,0,1-1.4-1.4V232.313a1.4,1.4,0,0,1,1.4-1.4h5.6a1.4,1.4,0,0,1,1.4,1.4v23.811A1.4,1.4,0,0,1,339.237,257.525Z" transform="translate(-241.891 -141.009)" fill="#fc8d94"/><path d="M277.426,287.527h-5.6a1.4,1.4,0,0,1-1.4-1.4V273.521a1.4,1.4,0,0,1,1.4-1.4h5.6a1.4,1.4,0,0,1,1.4,1.4v12.606A1.4,1.4,0,0,1,277.426,287.527Z" transform="translate(-196.888 -171.011)" fill="#bde4ff"/><path d="M424.934,411.787l-12.45-12.45a1.4,1.4,0,0,1,0-1.976l4.237-4.237,2.31-1.483,15.139,9.863c3.274,3.274,4.64,6.075,1.366,9.349a21.066,21.066,0,0,1-2.514,3.109A8.381,8.381,0,0,1,424.934,411.787Z" transform="translate(-300.02 -258.031)" fill="#d19a6e"/><path d="M466.953,413.876a8.338,8.338,0,0,1-3.77,2.175,8.382,8.382,0,0,0-2.173-8.09l-7.509-7.509v-4.738l5.943-1.2,7.509,7.509A8.385,8.385,0,0,1,466.953,413.876Z" transform="translate(-330.182 -260.12)" fill="#bc845e"/><path d="M423.338,400.452l-5.915,5.915-4.941-4.941a1.4,1.4,0,0,1,0-1.975l4.94-4.941,6.837.761Z" transform="translate(-300.019 -260.12)" fill="#ffe07d"/><path d="M440.975,380.179l-5.942,5.942-4.94-4.94a1.394,1.394,0,0,0-1.957-.02l5.921-5.925a1.4,1.4,0,0,1,1.979,0Z" transform="translate(-311.714 -245.79)" fill="#ffd064"/></g></svg>