<svg xmlns="http://www.w3.org/2000/svg" width="119.134" height="119.134" viewBox="0 0 119.134 119.134"><g transform="translate(-4 -4)"><g transform="translate(4 4)"><g transform="translate(38.293 8.509)"><path d="M68.594,39.231c-1.215-3.965-5.108-4.64-8.042-1.706l-4.514,4.514v-25.3a4.415,4.415,0,0,0-3.54-4.425,4.258,4.258,0,0,0-4.97,4.2V12.255a4.258,4.258,0,0,0-4.97-4.2,4.415,4.415,0,0,0-3.54,4.425V16.51a4.258,4.258,0,0,0-4.97-4.2,4.415,4.415,0,0,0-3.54,4.425v4.027a4.255,4.255,0,0,0-8.51,0V66.529A9.06,9.06,0,0,1,26.138,65.5a8.7,8.7,0,0,1,8.231,6.525,8.967,8.967,0,0,1,.27,4.055H51.784v-8.51l16.23-24.346A4.7,4.7,0,0,0,68.594,39.231Z" transform="translate(-22 -8)" fill="#f0c8a0"/></g><g transform="translate(72.332 42.548)"><path d="M76.782,53.294l-4.744,4.744v-25.3a4.415,4.415,0,0,0-3.54-4.425,4.259,4.259,0,0,0-4.97,4.2V28.255a4.259,4.259,0,0,0-4.97-4.2,4.415,4.415,0,0,0-3.54,4.425V32.51a4.246,4.246,0,0,0-2.3-3.772L38,50.816V92.077H67.784v-8.51l16.23-24.346a4.7,4.7,0,0,0-7.231-5.927Z" transform="translate(-38 -24)" fill="#f0c8a0"/></g><g transform="translate(97.86 47.384)"><path d="M52.127,26.273A4.243,4.243,0,0,0,50,29.947V55.476h2.127Z" transform="translate(-50 -26.273)" fill="#d2aa82"/></g><g transform="translate(89.351 43.131)"><path d="M48.127,57.729V24.274A4.585,4.585,0,0,0,46,28.174V57.729Z" transform="translate(-46 -24.274)" fill="#d2aa82"/></g><g transform="translate(63.822 13.345)"><path d="M36.127,10.273A4.243,4.243,0,0,0,34,13.947V39.476h2.127Z" transform="translate(-34 -10.273)" fill="#d2aa82"/></g><g transform="translate(55.312 9.092)"><path d="M32.127,41.729V8.274A4.585,4.585,0,0,0,30,12.174V41.729Z" transform="translate(-30 -8.274)" fill="#d2aa82"/></g><g transform="translate(46.803 13.347)"><path d="M28.127,39.475v-29.2A4.585,4.585,0,0,0,26,14.174v25.3Z" transform="translate(-26 -10.274)" fill="#d2aa82"/></g><g transform="translate(80.841 53.408)"><path d="M42,32.3V52.283h2.127V29.1Z" transform="translate(-42 -29.105)" fill="#d2aa82"/></g><g transform="translate(72.332 66.173)"><path d="M38,41.264V79.557h2.127V35.1L38,38.3Z" transform="translate(-38 -35.105)" fill="#d2aa82"/></g><g transform="translate(38.293 76.586)"><path d="M34.639,40a8.964,8.964,0,0,1-1.379,3.544L22,60.434V82.548H51.784V40Z" transform="translate(-22 -40)" fill="#fa6450"/></g><g transform="translate(38.293 84.256)"><path d="M22,56.369V78.484h8.51V43.6Z" transform="translate(-22 -43.605)" fill="#dc4632"/></g><g transform="translate(38.293 17.608)"><path d="M24.127,60.92V12.277A4.237,4.237,0,0,0,22,15.943V61.707A9.412,9.412,0,0,1,24.127,60.92Z" transform="translate(-22 -12.277)" fill="#d2aa82"/></g><g transform="translate(0 42.548)"><path d="M12.51,36.765V32.737a4.415,4.415,0,0,1,3.54-4.425,4.259,4.259,0,0,1,4.97,4.2V28.483a4.415,4.415,0,0,1,3.54-4.425,4.259,4.259,0,0,1,4.97,4.2V32.51a4.259,4.259,0,0,1,4.97-4.2,4.413,4.413,0,0,1,3.54,4.425v25.3l4.514-4.514c2.932-2.932,6.827-2.259,8.042,1.706a4.7,4.7,0,0,1-.581,3.991L33.784,83.567v8.51H4V36.765a4.255,4.255,0,0,1,8.51,0Z" transform="translate(-4 -24)" fill="#f0c8a0"/></g><g transform="translate(25.529 47.386)"><path d="M18.127,26.274A4.243,4.243,0,0,0,16,29.948V55.477h2.127Z" transform="translate(-16 -26.274)" fill="#d2aa82"/></g><g transform="translate(17.019 43.131)"><path d="M14.127,57.729V24.274A4.585,4.585,0,0,0,12,28.174V57.729Z" transform="translate(-12 -24.274)" fill="#d2aa82"/></g><g transform="translate(8.51 47.386)"><path d="M10.127,55.475v-29.2A4.585,4.585,0,0,0,8,30.174v25.3Z" transform="translate(-8 -26.274)" fill="#d2aa82"/></g><g transform="translate(0 51.647)"><path d="M6.127,28.277A4.242,4.242,0,0,0,4,31.943V87.255H6.127Z" transform="translate(-4 -28.277)" fill="#d2aa82"/></g><g transform="translate(0 110.625)"><path d="M4,56H33.784v8.51H4Z" transform="translate(-4 -56)" fill="#3cc8b4"/></g><g transform="translate(0 110.625)"><path d="M4,56h8.51v8.51H4Z" transform="translate(-4 -56)" fill="#1eaa96"/></g><g transform="translate(72.332 110.625)"><path d="M38,56H67.784v8.51H38Z" transform="translate(-38 -56)" fill="#fab400"/></g><g transform="translate(72.332 110.625)"><path d="M38,56h8.51v8.51H38Z" transform="translate(-38 -56)" fill="#dc9600"/></g><g transform="translate(85.096 0)"><circle cx="17" cy="17" r="17" transform="translate(-0.096)" fill="#3cc8b4"/></g><g transform="translate(85.096)"><path d="M48.219,21.019A17.011,17.011,0,0,1,63.13,4.145a17.013,17.013,0,1,0-2.11,33.894,16.812,16.812,0,0,0,2.108-.145A17.011,17.011,0,0,1,48.219,21.019Z" transform="translate(-44 -4)" fill="#1eaa96"/></g><g transform="translate(91.478 8.51)"><path d="M68.274,12.255,55.51,25.019,47,16.51l4.255-4.255L55.51,16.51,64.019,8Z" transform="translate(-47 -8)" fill="#f0f0f0"/></g></g></g></svg>