<svg xmlns="http://www.w3.org/2000/svg" width="117.442" height="96.566" viewBox="0 0 117.442 96.566"><g transform="translate(0 -43.684)"><path d="M58.676,207.669l-.49-1.26-5.723-39.372L35.021,133.824H5.87L.135,140.036l.02.017H.018a3.448,3.448,0,0,0,.82,2.062l56.2,65.943a2.626,2.626,0,0,0,1.642.793l.129-.894Z" transform="translate(-0.014 -68.602)" fill="#01d0fb"/><g transform="translate(0 43.684)"><g transform="translate(0 0)"><path d="M303.527,138.514l-5.018-6.69H260.995l-16.487,69.771.239,5.735a3.81,3.81,0,0,0,1.642-.793l56.24-65.943a3.446,3.446,0,0,0,.816-2.024Z" transform="translate(-186.085 -110.764)" fill="#dff6fd"/><path d="M135.488,159.894H188.3l-26.527,68.8Z" transform="translate(-103.114 -132.127)" fill="#99e6fc"/><path d="M388.42,70.733a3.427,3.427,0,0,1,.282,1.556H356.528l19.354-26.58.746-.925a2.158,2.158,0,0,1,.946,1.035Z" transform="translate(-271.339 -44.521)" fill="#f2fbff"/><path d="M317.669,43.947l-.745.925-19.354,26.58L279.058,43.923v-.239h37.578A2.151,2.151,0,0,1,317.669,43.947Z" transform="translate(-212.379 -43.684)" fill="#dff6fd"/><path d="M169.793,43.684v.239L188.3,71.451H135.488L154,43.923v-.239Z" transform="translate(-103.114 -43.684)" fill="#c8effe"/><path d="M90.017,43.923,71.506,71.451,52.152,44.872l-.734-1.023a2.124,2.124,0,0,1,.824-.165H90.017Z" transform="translate(-39.132 -43.684)" fill="#99e6fc"/><path d="M13.019,45.4l19.354,26.58H0a3.459,3.459,0,0,1,.282-1.556L11.131,45.507a2.165,2.165,0,0,1,1.154-1.133Z" transform="translate(0 -44.209)" fill="#62dbfb"/></g></g><g transform="translate(7.185 105.683)"><path d="M66.345,389.323v9.961a1.232,1.232,0,0,1-1.3,1.229q-8.109-.42-10.358-6.44a1.228,1.228,0,0,1,.636-1.538l9.271-4.326A1.229,1.229,0,0,1,66.345,389.323Z" transform="translate(-48.749 -367.798)" fill="#fedf30"/><path d="M41.807,312.787l-9.365,3.394a1.233,1.233,0,0,1-1.6-.8q-2.368-7.766,2.524-11.933a1.228,1.228,0,0,1,1.663.073l7.227,7.242A1.229,1.229,0,0,1,41.807,312.787Z" transform="translate(-30.072 -303.159)" fill="#fedf30"/><path d="M386.3,389.323v9.961a1.232,1.232,0,0,0,1.3,1.229q8.109-.42,10.358-6.44a1.228,1.228,0,0,0-.636-1.538l-9.271-4.326A1.229,1.229,0,0,0,386.3,389.323Z" transform="translate(-301.186 -367.798)" fill="#fedf30"/><path d="M408.251,312.787l9.365,3.394a1.233,1.233,0,0,0,1.6-.8q2.368-7.766-2.524-11.933a1.228,1.228,0,0,0-1.663.073l-7.227,7.242A1.229,1.229,0,0,0,408.251,312.787Z" transform="translate(-317.271 -303.159)" fill="#fedf30"/></g></g></svg>