<svg xmlns="http://www.w3.org/2000/svg" width="117.328" height="119.098" viewBox="0 0 117.328 119.098"><g transform="translate(-3.806)"><g transform="translate(60.699 91.724)"><path d="M250.156,406.909a1.771,1.771,0,0,1-.321-3.512,9.483,9.483,0,0,0,7.629-7.628,1.771,1.771,0,0,1,3.482.643,13.043,13.043,0,0,1-3.361,6.617,13.2,13.2,0,0,1-7.1,3.849,1.789,1.789,0,0,1-.325.03Z" transform="translate(-248.387 -394.32)" fill="#89daa4"/></g><g transform="translate(51.652 98.806)"><path d="M220.315,437.354a1.8,1.8,0,0,1-.319-.029,13.132,13.132,0,0,1-7.289-4.015,12.986,12.986,0,0,1-3.183-6.461,1.771,1.771,0,0,1,3.485-.628,9.449,9.449,0,0,0,2.313,4.7,9.564,9.564,0,0,0,5.309,2.919,1.771,1.771,0,0,1-.315,3.513Z" transform="translate(-209.495 -424.765)" fill="#89daa4"/></g><g transform="translate(60.699 67.424)"><path d="M250.159,341.528a1.77,1.77,0,0,1-1.77-1.771V291.624a1.771,1.771,0,0,1,3.541,0v48.133A1.771,1.771,0,0,1,250.159,341.528Z" transform="translate(-248.389 -289.854)" fill="#d1a08f"/></g><path d="M291.406,360.348a6.657,6.657,0,1,1-9.414-9.414c2.065-2.065,8.862-2.922,11.57-3.187a.942.942,0,0,1,1.03,1.03c-.265,2.708-1.121,9.505-3.187,11.57Z" transform="translate(-211.98 -266.853)" fill="#aee69c"/><path d="M171.694,393.734a6.657,6.657,0,1,0,9.414-9.414c-2.065-2.065-8.862-2.922-11.57-3.187a.942.942,0,0,0-1.03,1.03c.265,2.708,1.121,9.505,3.187,11.57Z" transform="translate(-126.386 -292.473)" fill="#aee69c"/><g transform="translate(13.367 115.557)"><path d="M141.343,500.318H46.678a1.771,1.771,0,0,1,0-3.541h94.665a1.771,1.771,0,0,1,0,3.541Z" transform="translate(-44.908 -496.777)" fill="#d1a08f"/></g><g transform="translate(3.806 0)"><path d="M114.051,69.194H10.888a7.082,7.082,0,0,1-7.082-7.082V7.082A7.082,7.082,0,0,1,10.888,0H114.051a7.082,7.082,0,0,1,7.082,7.082v55.03a7.082,7.082,0,0,1-7.082,7.082Z" transform="translate(-3.806 0)" fill="#aee69c"/><path d="M454.384,0H447.3a7.082,7.082,0,0,1,7.082,7.082v55.03a7.082,7.082,0,0,1-7.082,7.082h7.082a7.082,7.082,0,0,0,7.082-7.082V7.082A7.082,7.082,0,0,0,454.384,0Z" transform="translate(-344.139 0)" fill="#89daa4"/><path d="M434.282,0H421.106a20.258,20.258,0,0,0,20.258,20.258V7.082A7.082,7.082,0,0,0,434.282,0Z" transform="translate(-324.036 0)" fill="#d5efc8"/><path d="M454.388,0h-7.081a7.082,7.082,0,0,1,7.081,7.082v11.9a20.21,20.21,0,0,0,7.082,1.275V7.082A7.082,7.082,0,0,0,454.388,0Z" transform="translate(-344.143 0)" fill="#c1e9af"/><path d="M441.364,223.553V210.377a20.258,20.258,0,0,0-20.258,20.258h13.176A7.082,7.082,0,0,0,441.364,223.553Z" transform="translate(-324.036 -161.441)" fill="#d5efc8"/><path d="M454.388,223.553a7.082,7.082,0,0,1-7.081,7.082h7.081a7.082,7.082,0,0,0,7.082-7.082V210.377a20.2,20.2,0,0,0-7.082,1.275Z" transform="translate(-344.143 -161.441)" fill="#c1e9af"/><path d="M3.806,7.082V20.258A20.258,20.258,0,0,0,24.064,0H10.888A7.082,7.082,0,0,0,3.806,7.082Z" transform="translate(-3.806 0)" fill="#d5efc8"/><path d="M3.806,210.377v13.176a7.082,7.082,0,0,0,7.082,7.082H24.064A20.258,20.258,0,0,0,3.806,210.377Z" transform="translate(-3.806 -161.44)" fill="#d5efc8"/><g transform="translate(31.988 7.921)"><circle cx="26.676" cy="26.676" r="26.676" fill="#89daa4"/><path d="M228.785,84.909h-1.178v-9.73h1.179a2.973,2.973,0,0,1,2.653,3.206,1.771,1.771,0,0,0,3.541,0,6.5,6.5,0,0,0-6.194-6.747h-1.179v-2a1.771,1.771,0,0,0-3.541,0v2h-1.179a6.5,6.5,0,0,0-6.194,6.747V81.7a7.041,7.041,0,0,0,1.743,4.7,5.909,5.909,0,0,0,4.452,2.052h1.178v9.73h-1.179a2.973,2.973,0,0,1-2.653-3.206,1.77,1.77,0,1,0-3.541,0,6.5,6.5,0,0,0,6.194,6.747h1.179v2a1.771,1.771,0,0,0,3.541,0v-2h1.179a6.5,6.5,0,0,0,6.194-6.747V91.656a7.041,7.041,0,0,0-1.743-4.7,5.912,5.912,0,0,0-4.452-2.052Zm-5.9,0a2.417,2.417,0,0,1-1.8-.863,3.507,3.507,0,0,1-.849-2.343V78.385a2.973,2.973,0,0,1,2.653-3.206h1.179v9.73Zm8.552,10.065a2.973,2.973,0,0,1-2.653,3.206h-1.179V88.45h1.179a2.417,2.417,0,0,1,1.8.863,3.507,3.507,0,0,1,.849,2.343v3.318Z" transform="translate(-199.16 -60.004)" fill="#fff"/></g><g transform="translate(11.213 29.64)"><circle cx="4.957" cy="4.957" r="4.957" transform="translate(84.986)" fill="#fff"/><circle cx="4.957" cy="4.957" r="4.957" fill="#fff"/></g></g></g></svg>