<svg xmlns="http://www.w3.org/2000/svg" width="42.245" height="42.245" viewBox="0 0 42.245 42.245"><path d="M41.007,39.77H31.065a8.7,8.7,0,1,1,8.7-8.7,2.076,2.076,0,0,1-4.153,0,4.56,4.56,0,1,0-1.238,3.115,4.549,4.549,0,0,0,7.866-3.115,11.184,11.184,0,0,0-14-10.82A13.167,13.167,0,1,0,11.21,24.921,17.175,17.175,0,0,0,0,41.007a1.238,1.238,0,0,0,1.238,1.238h39.77a1.238,1.238,0,0,0,0-2.475Zm-9.942-6.628a2.076,2.076,0,1,1,2.077-2.076A2.079,2.079,0,0,1,31.065,33.141ZM6.452,13.169A10.693,10.693,0,1,1,17.146,23.862,10.705,10.705,0,0,1,6.452,13.169ZM2.527,39.77A14.682,14.682,0,0,1,20.739,26.781,11.168,11.168,0,0,0,24.058,39.77Z"/></svg>