<svg xmlns="http://www.w3.org/2000/svg" width="152.37" height="38.701" viewBox="0 0 152.37 38.701"><g transform="translate(-212.54 -73)"><path d="M59.582,43.011a9.45,9.45,0,0,1-2.176-6.647v-.272A9.924,9.924,0,0,1,59.6,29.309a7.146,7.146,0,0,1,5.627-2.5,5.87,5.87,0,0,1,5.611,3.06V19.16h4.9V45h-4.9V42.042a5.866,5.866,0,0,1-2.278,2.38,6.484,6.484,0,0,1-3.434.952A7.2,7.2,0,0,1,59.582,43.011Zm3.961-11.05a6.325,6.325,0,0,0-1.1,4.029v.272a5.985,5.985,0,0,0,1.121,3.927,3.739,3.739,0,0,0,3.026,1.344,4.036,4.036,0,0,0,3.2-1.36,5.877,5.877,0,0,0,1.19-3.978v-.273a6.185,6.185,0,0,0-1.105-3.978,4.338,4.338,0,0,0-6.324.017ZM30.478,42.943a8.641,8.641,0,0,1-2.584-6.612v-.273A8.822,8.822,0,0,1,37.04,26.81a8.79,8.79,0,0,1,6.2,2.278q2.465,2.277,2.465,6.766v1.36H32.892a5.167,5.167,0,0,0,1.257,3.434,4.141,4.141,0,0,0,3.163,1.224q3.2,0,3.706-2.481h4.657a6.328,6.328,0,0,1-2.652,4.437,10,10,0,0,1-5.847,1.547A9.381,9.381,0,0,1,30.478,42.943Zm3.825-11.7a4.925,4.925,0,0,0-1.343,2.941h7.956q-.238-3.978-3.875-3.978A3.774,3.774,0,0,0,34.3,31.247ZM110.48,45V34.392a4.068,4.068,0,0,0-.749-2.7,2.982,2.982,0,0,0-2.38-.867,3.664,3.664,0,0,0-2.686,1,3.9,3.9,0,0,0-1.021,2.907V45h-4.93V27.218h4.93V30.04a5.68,5.68,0,0,1,2.193-2.329,6.771,6.771,0,0,1,3.587-.9,5.711,5.711,0,0,1,4.369,1.717,7.273,7.273,0,0,1,1.615,5.151V45ZM88.244,45V20.69h5.542V45ZM49.076,45V19.16h4.9V45ZM18.884,45V34.97H9.126V45H3.618V20.69H9.126v9.928h9.758V20.69h5.508V45Z" transform="translate(249 58)" fill="#192c37" stroke="rgba(0,0,0,0)" stroke-miterlimit="10" stroke-width="1"/><g transform="translate(649 808.956)"><path d="M-436.46-735.956v38.328s4.766.805,9.43-3.859,3.731-8.6,3.731-8.6v-25.873Z" transform="translate(0)" fill="#94be50"/><path d="M-386.28-691.571v13.217s.9,6.16,5.622,8.883,7.8,2.554,7.8,2.554v-13.968s-1.435-5.975-6.466-9.011S-386.28-691.571-386.28-691.571Z" transform="translate(-34.539 -30.341)" fill="#94be50"/></g></g></svg>