<svg xmlns="http://www.w3.org/2000/svg" width="41.487" height="41.481" viewBox="0 0 41.487 41.481"><g transform="translate(-4.56 -4.599)"><path d="M44.986,19l-6.672-6.672L31.642,5.659a3.782,3.782,0,0,0-6.407,2.655,3.729,3.729,0,0,0,1.1,2.64,1.415,1.415,0,0,1-.257,2.224L6.406,22.407a1.157,1.157,0,0,0-.635.832,1.142,1.142,0,0,0,.318,1l6.37,6.385L4.7,44.406a1.135,1.135,0,0,0,1.513,1.551l13.813-7.769,6.37,6.37a1.142,1.142,0,0,0,1,.318,1.157,1.157,0,0,0,.832-.635l9.2-19.585a1.407,1.407,0,0,1,2.269-.34,3.729,3.729,0,0,0,2.655,1.1A3.782,3.782,0,0,0,44.986,19ZM8.675,41.97l5.469-9.706L18.381,36.5ZM43.4,22.695a1.513,1.513,0,0,1-2.1,0,3.692,3.692,0,0,0-5.87.93L26.884,41.781,8.834,23.814l18.216-8.6a3.692,3.692,0,0,0,.885-5.848,1.513,1.513,0,0,1,2.1-2.1l6.672,6.672,6.672,6.672a1.513,1.513,0,0,1,0,2.1Z"/></g></svg>