<svg xmlns="http://www.w3.org/2000/svg" width="37.207" height="49.063" viewBox="0 0 37.207 49.063"><g transform="translate(-61.857 0.001)"><g transform="translate(61.857 -0.001)"><path d="M96.8,27.208,89.478,15.724a3.256,3.256,0,0,0-.3-5.911l2.219-7.759a.958.958,0,0,0-.244-.941,3.791,3.791,0,0,0-5.355,0,1.857,1.857,0,0,1-1.322.548,1.859,1.859,0,0,1-1.324-.55l0,0A3.793,3.793,0,0,0,77.8,1.1l-.028.027a1.873,1.873,0,0,1-2.639,0l-.007-.007a3.791,3.791,0,0,0-5.355,0,.959.959,0,0,0-.244.942l2.224,7.756a3.256,3.256,0,0,0-.308,5.913L64.117,27.208A14.212,14.212,0,0,0,76.1,49.062h8.723A14.212,14.212,0,0,0,96.8,27.208ZM73.77,2.468l.007.007a3.794,3.794,0,0,0,5.346.009l.028-.027a1.874,1.874,0,0,1,2.642.007l0,0a3.791,3.791,0,0,0,5.355,0,1.873,1.873,0,0,1,2.222-.317L87.248,9.58H73.679L71.548,2.15a1.873,1.873,0,0,1,2.221.317ZM95.6,40.761a12.135,12.135,0,0,1-10.781,6.385H76.1A12.3,12.3,0,0,1,65.733,28.239L73.479,16.1h2.669a.958.958,0,1,0,0-1.917H72.953a1.342,1.342,0,0,1,0-2.683H87.967a1.342,1.342,0,0,1,0,2.683H84.773a.958.958,0,1,0,0,1.917h2.669l7.746,12.142A12.135,12.135,0,0,1,95.6,40.761Z" transform="translate(-61.857 0.001)"/><path d="M214.816,246.462c-.24-.085-.486-.173-.731-.265v-4.343a3.938,3.938,0,0,1,1.1.515.958.958,0,0,0,1.153-1.531,5.854,5.854,0,0,0-2.255-.954v-.954a.958.958,0,0,0-1.917,0v.947a4.961,4.961,0,0,0-.494.121,3.838,3.838,0,0,0-2.631,3.01,3.384,3.384,0,0,0,1.108,3.336,9.226,9.226,0,0,0,2.016,1.146v5.558a3.831,3.831,0,0,1-2.1-.77.958.958,0,1,0-1.049,1.6,5.657,5.657,0,0,0,3.15,1.084v.991a.958.958,0,0,0,1.917,0v-1.091a4.62,4.62,0,0,0,3.522-3.764A4.054,4.054,0,0,0,214.816,246.462Zm-3.481-1.628a1.493,1.493,0,0,1-.408-1.472,1.952,1.952,0,0,1,1.241-1.51v3.51A5.738,5.738,0,0,1,211.335,244.834Zm4.382,5.948a2.747,2.747,0,0,1-1.632,2.076v-4.623l.092.033A2.169,2.169,0,0,1,215.716,250.782Z" transform="translate(-194.523 -215.165)"/><path d="M246.943,149.886a.959.959,0,1,0-.678-.281A.966.966,0,0,0,246.943,149.886Z" transform="translate(-228.34 -133.789)"/></g></g></svg>