<svg xmlns="http://www.w3.org/2000/svg" width="43.176" height="37.028" viewBox="0 0 43.176 37.028"><g transform="translate(0 -31.842)"><g transform="translate(0 31.842)"><path d="M40.58,47.325a3.086,3.086,0,0,0-.534-.04H9.586l.664-.309A6.178,6.178,0,0,0,12,45.741L20.538,37.2a3.2,3.2,0,0,0,.448-4.093,3.089,3.089,0,0,0-4.634-.4L.906,48.15a3.089,3.089,0,0,0,0,4.369l0,0L16.352,67.968a3.089,3.089,0,0,0,4.634-.309,3.2,3.2,0,0,0-.448-4.093l-8.526-8.557a6.179,6.179,0,0,0-1.545-1.128l-.927-.417H39.876a3.2,3.2,0,0,0,3.259-2.595A3.089,3.089,0,0,0,40.58,47.325Z" transform="translate(0 -31.842)"/></g></g></svg>